<?xml version="1.0" standalone="no"?>
<!DOCTYPE svg PUBLIC "-//W3C//DTD SVG 20010904//EN"
 "http://www.w3.org/TR/2001/REC-SVG-20010904/DTD/svg10.dtd">
<svg version="1.0" xmlns="http://www.w3.org/2000/svg"
 width="468.000000pt" height="468.000000pt" viewBox="0 0 468.000000 468.000000"
 preserveAspectRatio="xMidYMid meet">
<metadata>
Created by potrace 1.14, written by Peter Selinger 2001-2017
</metadata>
<g transform="translate(0.000000,468.000000) scale(0.100000,-0.100000)"
fill="#000000" stroke="none">
<path d="M3790 3599 c-30 -4 -66 -10 -80 -14 -14 -3 -32 -8 -40 -10 -8 -2 -15
-4 -15 -5 0 -1 -9 -3 -19 -5 -11 -2 -31 -7 -45 -10 -26 -6 -205 -69 -251 -88
-14 -5 -29 -11 -35 -13 -23 -6 -218 -96 -319 -148 -60 -31 -112 -56 -117 -56
-6 0 -148 -81 -349 -198 -76 -45 -107 -60 -160 -77 -30 -9 -68 -23 -85 -31
-16 -7 -66 -26 -110 -43 -156 -57 -520 -223 -601 -274 -22 -13 -61 -36 -89
-52 -233 -129 -261 -150 -271 -201 -6 -34 15 -93 43 -116 9 -7 59 -14 127 -18
l111 -5 -32 -17 c-17 -10 -37 -24 -45 -31 -7 -8 -31 -26 -53 -40 -22 -15 -58
-39 -80 -54 -22 -14 -46 -32 -53 -40 -8 -7 -23 -18 -34 -24 -19 -10 -90 -62
-130 -94 -9 -7 -27 -19 -40 -26 -12 -7 -29 -19 -37 -26 -8 -8 -33 -26 -55 -40
-22 -15 -47 -32 -54 -40 -8 -7 -26 -20 -40 -27 -15 -8 -36 -23 -46 -35 -11
-12 -24 -21 -30 -21 -6 0 -29 -15 -51 -34 -22 -19 -42 -33 -44 -31 -2 3 -11
-3 -20 -13 -14 -15 -38 -33 -126 -92 -12 -8 -33 -23 -46 -32 -13 -10 -55 -40
-94 -67 -89 -63 -104 -78 -122 -120 -13 -30 -13 -39 2 -78 9 -23 25 -49 34
-56 10 -6 26 -29 36 -50 10 -21 28 -45 41 -53 27 -18 76 -21 107 -7 12 6 49
23 82 37 65 29 122 55 200 90 81 38 117 54 170 77 28 12 77 34 110 49 33 15
87 40 120 55 33 15 88 40 121 56 34 16 64 29 67 29 3 0 50 20 104 45 54 25
112 52 128 59 86 40 172 79 188 88 24 12 199 88 204 88 3 0 -6 -355 -10 -370
0 -3 3 -20 7 -38 9 -37 55 -72 94 -72 25 0 101 36 117 55 5 7 21 19 34 28 36
24 139 125 211 207 36 41 77 88 92 105 16 16 28 33 28 37 0 4 6 13 13 20 21
21 152 220 193 294 22 38 44 78 51 89 6 11 22 41 35 67 16 33 32 51 52 58 16
5 51 23 77 40 27 16 55 30 62 30 13 0 178 97 187 109 3 4 28 21 55 37 43 24
188 131 250 184 11 9 83 79 160 156 231 230 437 524 452 645 8 71 -40 140
-109 155 -40 9 -171 11 -228 3z"/>
</g>
</svg>
